<svg width="967" height="201" viewBox="0 0 967 201" fill="none" xmlns="http://www.w3.org/2000/svg">
<path d="M910.801 164.3C901.114 164.3 892.769 162.139 885.765 157.817C878.909 153.495 873.545 146.789 869.67 137.699C865.944 128.459 864.082 116.537 864.082 101.933C864.082 88.0736 866.019 76.6732 869.894 67.7318C873.768 58.7903 879.133 52.1587 885.988 47.837C892.843 43.5152 900.816 41.3544 909.907 41.3544C915.123 41.3544 919.966 41.9505 924.437 43.1427C928.907 44.3349 932.856 46.1977 936.284 48.7311C939.861 51.2645 943.88 59.5078 945.673 67.0694H947.014V0H966.685V161.617H950.814L949.026 136.573H947.461C945.26 145.059 938.221 156.327 931.813 159.606C925.405 162.735 918.401 164.3 910.801 164.3ZM915.495 147.087C922.946 147.087 928.982 145.448 933.602 142.17C938.221 138.891 941.574 134.122 943.661 127.863C945.896 121.604 947.014 113.855 947.014 104.615V101.039C947.014 92.9914 946.194 86.2108 944.555 80.6969C942.916 75.183 940.68 70.7868 937.849 67.5082C935.017 64.2297 931.739 61.9198 928.013 60.5786C924.288 59.2373 920.338 58.5667 916.166 58.5667C908.864 58.5667 902.903 60.057 898.283 63.0375C893.663 65.8689 890.235 70.4142 888 76.6732C885.765 82.7832 884.647 90.7561 884.647 100.592V105.286C884.647 115.42 885.839 123.616 888.224 129.875C890.608 135.985 894.036 140.381 898.506 143.064C903.126 145.746 908.789 147.087 915.495 147.087Z" fill="white"/>
<path d="M799.26 164.3C787.636 164.3 777.8 162.139 769.753 157.817C761.855 153.346 755.819 146.566 751.646 137.475C747.623 128.385 745.611 116.835 745.611 102.827C745.611 88.6696 747.623 77.1202 751.646 68.1787C755.819 59.0882 761.929 52.3821 769.976 48.0604C778.024 43.5896 788.083 41.3542 800.154 41.3542C811.182 41.3542 820.421 43.5151 827.872 47.8368C835.324 52.0095 840.912 58.3431 844.638 66.8375C848.512 75.1829 850.45 85.6891 850.45 98.3562V107.745H765.953C766.251 117.133 767.592 124.883 769.976 130.993C772.51 136.954 776.235 141.35 781.153 144.181C786.071 146.864 792.256 148.205 799.707 148.205C804.774 148.205 809.17 147.609 812.896 146.417C816.77 145.075 819.974 143.213 822.508 140.828C825.19 138.444 827.202 135.612 828.543 132.334C829.884 129.055 830.629 125.479 830.778 121.604H850.003C849.854 127.863 848.661 133.675 846.426 139.04C844.191 144.256 840.912 148.727 836.59 152.452C832.269 156.178 826.978 159.084 820.719 161.17C814.46 163.256 807.307 164.3 799.26 164.3ZM766.4 92.9913H830.108C830.108 86.4342 829.363 80.9203 827.872 76.4496C826.382 71.9788 824.221 68.3277 821.39 65.4963C818.707 62.6648 815.503 60.653 811.778 59.4608C808.201 58.1195 804.103 57.4489 799.483 57.4489C792.628 57.4489 786.816 58.7156 782.047 61.249C777.279 63.7825 773.627 67.6571 771.094 72.873C768.561 78.0888 766.996 84.795 766.4 92.9913Z" fill="white"/>
<path d="M634.292 161.617V44.0367H650.164L651.952 69.9753H653.517C657.29 57.4489 661.785 51.73 664.023 50.0722C668.047 47.0917 672.443 44.9308 677.212 43.5896C682.129 42.0994 687.345 41.3542 692.859 41.3542C700.31 41.3542 706.793 42.621 712.307 45.1544C717.97 47.6878 722.366 51.786 725.496 57.4489C728.774 63.1119 730.413 70.7866 730.413 80.4732V161.617H710.742V83.1557C710.742 78.2379 710.072 74.2142 708.73 71.0847C707.538 67.9552 705.824 65.4963 703.589 63.708C701.503 61.9197 698.895 60.653 695.765 59.9078C692.785 59.1627 689.432 58.7901 685.706 58.7901C680.192 58.7901 674.976 60.1314 670.058 62.8138C665.141 65.4963 661.191 69.3709 658.211 74.4377C655.379 79.5046 653.964 85.5401 653.964 92.5443V161.617H634.292Z" fill="white"/>
<path d="M582.657 26.8245L585.916 9.04825C586.877 3.80678 591.445 0 596.774 0H618.647L613.952 26.8245H582.657ZM559.409 161.617L580.198 44.0368H611.27L590.481 161.617H559.409Z" fill="white"/>
<path d="M463.914 164.3C456.015 164.3 449.011 162.66 442.901 159.382C436.94 156.103 432.32 151.26 429.042 144.852C425.912 138.295 424.347 130.248 424.347 120.71C424.347 117.729 424.496 114.674 424.794 111.545C425.093 108.266 425.54 104.764 426.136 101.039C428.52 87.3284 432.246 76.077 437.313 67.2846C442.528 58.3431 448.862 51.786 456.313 47.6133C463.914 43.4406 472.408 41.3542 481.796 41.3542C486.863 41.3542 491.483 41.9503 495.656 43.1425C499.977 44.3347 503.778 46.123 507.056 48.5074C515.086 53.9882 515.777 59.5408 517.863 63.4154H519.428L524.269 44.0367H549.752L544.387 72.873C543.344 78.6849 542.301 84.4969 541.257 90.3089C540.214 95.9718 539.245 101.337 538.351 106.404C537.457 111.47 536.638 116.016 535.892 120.039C535.147 124.063 534.551 127.342 534.104 129.875C533.806 132.408 533.657 133.973 533.657 134.569C533.657 136.656 534.179 138.22 535.222 139.264C536.414 140.158 537.979 140.605 539.916 140.605H547.069L543.716 160.5C541.779 161.394 539.246 162.213 536.116 162.958C533.135 163.853 529.708 164.3 525.833 164.3C521.81 164.3 518.233 163.555 515.103 162.064C511.974 160.723 509.515 158.637 507.727 155.805C506.982 154.464 506.311 152.974 505.715 151.335C504.047 145.059 507.73 139.404 507.581 137.467H506.016C501.098 143.577 494.388 156.098 485.82 159.605C479.114 162.735 471.812 164.3 463.914 164.3ZM476.879 138.816C480.753 138.816 484.404 138.071 487.832 136.581C491.26 134.942 494.24 132.632 496.773 129.651C499.456 126.671 501.766 123.094 503.703 118.922C505.64 114.6 507.056 109.831 507.95 104.615C508.546 101.933 508.919 99.6974 509.068 97.9091C509.366 95.9718 509.515 94.3325 509.515 92.9913C509.664 91.5011 509.739 90.2344 509.739 89.1912C509.739 84.2734 508.993 80.1752 507.503 76.8967C506.162 73.6181 504.001 71.1592 501.021 69.5199C498.04 67.7316 494.24 66.8375 489.62 66.8375C483.51 66.8375 478.369 68.1042 474.196 70.6376C470.173 73.022 466.894 76.7476 464.361 81.8145C461.827 86.7323 459.815 92.9168 458.325 100.368C457.729 103.498 457.282 106.18 456.984 108.415C456.686 110.502 456.462 112.365 456.313 114.004C456.164 115.494 456.09 116.835 456.09 118.027C456.09 124.883 457.729 130.098 461.007 133.675C464.286 137.103 469.576 138.816 476.879 138.816Z" fill="white"/>
<path d="M377.526 161.617V0H397.198V161.617H377.526Z" fill="white"/>
<path d="M249.095 200.289V44.0367H264.743L266.755 69.0811H268.319C269.749 59.5077 277.484 49.4016 283.743 46.2721C290.003 42.9935 297.081 41.3542 304.979 41.3542C314.815 41.3542 323.161 43.5151 330.016 47.8368C336.871 52.1585 342.161 58.9392 345.887 68.1787C349.612 77.2692 351.475 89.1167 351.475 103.721C351.475 117.431 349.538 128.832 345.663 137.922C341.938 146.864 336.647 153.495 329.792 157.817C322.937 162.139 314.964 164.3 305.874 164.3C300.807 164.3 296.038 163.704 291.567 162.511C287.097 161.319 283.073 159.456 279.496 156.923C275.92 154.241 271.002 145.075 270.108 138.585H268.766V200.289H249.095ZM299.615 147.087C306.917 147.087 312.878 145.672 317.498 142.84C322.117 139.86 325.545 135.314 327.78 129.204C330.016 122.945 331.133 114.972 331.133 105.286V100.592C331.133 90.3089 329.941 82.1125 327.557 76.0025C325.172 69.7435 321.67 65.2727 317.051 62.5903C312.58 59.9078 306.991 58.5666 300.285 58.5666C292.983 58.5666 286.948 60.2059 282.179 63.4844C277.559 66.6139 274.131 71.3827 271.896 77.7908C269.81 84.1989 268.766 92.0227 268.766 101.262V104.615C268.766 112.812 269.512 119.667 271.002 125.181C272.641 130.546 274.877 134.867 277.708 138.146C280.688 141.424 284.042 143.734 287.767 145.075C291.493 146.417 295.442 147.087 299.615 147.087Z" fill="white"/>
<path d="M115.062 161.618L157.311 101.486L117.074 44.037H140.769L169.382 86.062H170.499L199.112 44.037H221.466L181.229 100.815L223.701 161.618H200.23L169.382 116.239H168.264L137.416 161.618H115.062Z" fill="white"/>
<path d="M53.6489 164.3C42.025 164.3 32.1893 162.139 24.142 157.817C16.2437 153.346 10.2082 146.566 6.0355 137.475C2.01183 128.385 0 116.835 0 102.827C0 88.6696 2.01183 77.1202 6.0355 68.1787C10.2082 59.0882 16.3182 52.3821 24.3655 48.0604C32.4129 43.5896 42.472 41.3542 54.5431 41.3542C65.5709 41.3542 74.8104 43.5151 82.2616 47.8368C89.7129 52.0095 95.3013 58.3431 99.0269 66.8375C102.902 75.1829 104.839 85.6891 104.839 98.3562V107.745H20.3419C20.6399 117.133 21.9811 124.883 24.3655 130.993C26.899 136.954 30.6246 141.35 35.5424 144.181C40.4602 146.864 46.6447 148.205 54.096 148.205C59.1628 148.205 63.559 147.609 67.2847 146.417C71.1593 145.075 74.3633 143.213 76.8968 140.828C79.5792 138.444 81.591 135.612 82.9323 132.334C84.2735 129.055 85.0186 125.479 85.1676 121.604H104.392C104.243 127.863 103.051 133.675 100.815 139.04C98.5799 144.256 95.3013 148.727 90.9796 152.452C86.6579 156.178 81.3675 159.084 75.1085 161.17C68.8494 163.256 61.6962 164.3 53.6489 164.3ZM20.7889 92.9913H84.497C84.497 86.4342 83.7519 80.9203 82.2616 76.4496C80.7714 71.9788 78.6105 68.3277 75.7791 65.4963C73.0966 62.6648 69.8926 60.653 66.167 59.4608C62.5904 58.1195 58.4922 57.4489 53.8724 57.4489C47.0173 57.4489 41.2053 58.7156 36.4365 61.249C31.6678 63.7825 28.0166 67.6571 25.4832 72.873C22.9498 78.0888 21.385 84.795 20.7889 92.9913Z" fill="white"/>
</svg>
